<svg width="272" height="60" xmlns="http://www.w3.org/2000/svg">
 <!-- Created with Method Draw - http://github.com/duopixel/Method-Draw/ -->

 <g>
  <title>Layer 1</title>
  <g id="svg_49">
   <path stroke="#3684b2" id="svg_33" fill="#3684b2" d="m97.622114,16.58235l-11.281589,-5.745242l0.019093,-0.007354c0.212289,-0.080899 0.383139,-0.243687 0.474504,-0.45145c0.091365,-0.208046 0.095608,-0.443954 0.011739,-0.654971l-2.984918,-7.507199c-0.147089,-0.369844 -0.525702,-0.578597 -0.904173,-0.526551c-0.037479,-0.00495 -0.075383,-0.008627 -0.114277,-0.008627l-29.685116,0c-0.038894,0 -0.076939,0.003536 -0.11456,0.008627c-0.37833,-0.051905 -0.75666,0.156565 -0.903749,0.526551l-2.985201,7.507199c-0.08401,0.211016 -0.079768,0.446924 0.011597,0.654971c0.091365,0.207905 0.262215,0.370551 0.474504,0.45145l0.019093,0.007354l-11.281306,5.745242c-0.417648,0.212713 -0.58383,0.723565 -0.371117,1.141213c0.149776,0.29432 0.447914,0.463613 0.756943,0.463613c0.129552,0 0.261083,-0.029701 0.384412,-0.092496l12.643152,-6.438682c0.002121,-0.001131 0.004102,-0.002546 0.006223,-0.003536l9.315404,3.552342c0.099427,0.037904 0.20154,0.056007 0.302098,0.056007c0.337739,0 0.656668,-0.202955 0.788765,-0.535319l1.009823,-2.539125l1.13796,2.533043c0.136906,0.304785 0.439994,0.50081 0.774056,0.50081l0.109892,0l-4.165024,33.936414c-0.038469,0.31313 0.099992,0.621734 0.35952,0.801211l6.087507,4.210565c0.145109,0.100417 0.313979,0.150625 0.482707,0.150625c0.166324,0 0.332648,-0.048794 0.476625,-0.146523l6.202915,-4.210565c0.263205,-0.178628 0.404353,-0.489637 0.365601,-0.805313l-4.166722,-33.950415c0.274095,-0.047945 0.5117,-0.227281 0.62824,-0.486808l1.213343,-2.701064l1.076437,2.707146c0.132097,0.332365 0.451026,0.535319 0.788765,0.535319c0.100558,0 0.202672,-0.018103 0.302098,-0.056007l9.315404,-3.552342c0.002263,0.001131 0.004102,0.002546 0.006223,0.003536l12.643294,6.438682c0.123329,0.062796 0.25486,0.092496 0.384412,0.092496c0.309028,0 0.607025,-0.169294 0.756943,-0.463613c0.212289,-0.417648 0.046107,-0.9285 -0.371541,-1.141213zm-26.324697,-10.470477c-0.001839,0.000707 -0.003394,0.00198 -0.005233,0.002687l-6.584356,0c-0.001839,-0.000707 -0.003394,-0.00198 -0.005233,-0.002687l-7.168328,-2.733735l20.931337,0l-7.168187,2.733735zm-10.361858,7.208919l-9.886647,-3.770147l2.358092,-5.930093l9.886506,3.77043l-2.357951,5.92981zm7.068902,39.120878l-5.187152,-3.587841l4.007611,-32.653627l2.621014,1.266663l3.85147,31.381873l-5.292943,3.592933zm2.178898,-38.918772l-4.508987,0l-1.587572,-3.533532l0.865987,-2.177484l6.094437,0l0.79909,2.009463l-1.662955,3.701552zm2.523001,-6.131916l9.886647,-3.77043l2.357809,5.930093l-9.886647,3.770147l-2.357809,-5.92981z"/>
   <g transform="matrix(0.14143177766003934,0,0,0.14143177766003934,0,0) " id="svg_34"/>
   <g transform="matrix(0.14143177766003934,0,0,0.14143177766003934,0,0) " id="svg_35"/>
   <g transform="matrix(0.14143177766003934,0,0,0.14143177766003934,0,0) " id="svg_36"/>
   <g transform="matrix(0.14143177766003934,0,0,0.14143177766003934,0,0) " id="svg_37"/>
   <g transform="matrix(0.14143177766003934,0,0,0.14143177766003934,0,0) " id="svg_38"/>
   <g transform="matrix(0.14143177766003934,0,0,0.14143177766003934,0,0) " id="svg_39"/>
   <g transform="matrix(0.14143177766003934,0,0,0.14143177766003934,0,0) " id="svg_40"/>
   <g transform="matrix(0.14143177766003934,0,0,0.14143177766003934,0,0) " id="svg_41"/>
   <g transform="matrix(0.14143177766003934,0,0,0.14143177766003934,0,0) " id="svg_42"/>
   <g transform="matrix(0.14143177766003934,0,0,0.14143177766003934,0,0) " id="svg_43"/>
   <g transform="matrix(0.14143177766003934,0,0,0.14143177766003934,0,0) " id="svg_44"/>
   <g transform="matrix(0.14143177766003934,0,0,0.14143177766003934,0,0) " id="svg_45"/>
   <g transform="matrix(0.14143177766003934,0,0,0.14143177766003934,0,0) " id="svg_46"/>
   <g transform="matrix(0.14143177766003934,0,0,0.14143177766003934,0,0) " id="svg_47"/>
   <g transform="matrix(0.14143177766003934,0,0,0.14143177766003934,0,0) " id="svg_48"/>
  </g>
  <text stroke="#3684b2" transform="matrix(2.6499999761581416,0,0,2.2514619536799496,-136.47499805688858,-317.97952337525203) " xml:space="preserve" text-anchor="start" font-family="Helvetica, Arial, sans-serif" font-size="24" id="svg_51" y="163.057142" x="81.990566" stroke-width="0" fill="#1c1c1c">RBRO</text>
  <text stroke="#3684b2" transform="matrix(2.6499999761581416,0,0,2.2514619536799496,-136.47499805688858,-317.97952337525203) " xml:space="preserve" text-anchor="start" font-family="Helvetica, Arial, sans-serif" font-size="24" id="svg_52" y="163.501297" x="54.443396" stroke-width="0" fill="#1c1c1c">V</text>
 </g>
</svg>